<svg width="640" height="360" viewBox="0 0 640 360" fill="none" xmlns="http://www.w3.org/2000/svg">
  <rect width="640" height="360" rx="28" fill="url(#bg)"/>
  <g filter="url(#panelShadow)">
    <rect x="80" y="72" width="480" height="224" rx="24" fill="rgba(15,23,42,0.9)" stroke="rgba(148,163,184,0.35)"/>
    <rect x="112" y="104" width="160" height="120" rx="16" fill="rgba(6,95,70,0.82)" stroke="rgba(45,212,191,0.45)"/>
    <text x="132" y="136" fill="#d1fae5" font-family="'Inter',sans-serif" font-size="14" font-weight="600">Creator Wallet</text>
    <rect x="128" y="152" width="128" height="12" rx="6" fill="#d1fae5"/>
    <rect x="128" y="176" width="112" height="12" rx="6" fill="#99f6e4"/>
    <rect x="128" y="200" width="144" height="36" rx="12" fill="rgba(45,212,191,0.28)" stroke="#34d399" stroke-dasharray="8 6"/>
    <text x="140" y="222" fill="#ecfdf5" font-family="'Inter',sans-serif" font-size="12">Instant settlement ✔</text>
    <rect x="276" y="104" width="132" height="144" rx="18" fill="rgba(15,118,110,0.85)" stroke="rgba(45,212,191,0.45)"/>
    <text x="296" y="138" fill="#ccfbf1" font-family="'Inter',sans-serif" font-size="14" font-weight="600">Revenue Split</text>
    <rect x="292" y="154" width="104" height="12" rx="6" fill="#ccfbf1"/>
    <rect x="292" y="178" width="96" height="12" rx="6" fill="#5eead4"/>
    <rect x="292" y="202" width="72" height="12" rx="6" fill="#34d399"/>
    <rect x="292" y="226" width="104" height="28" rx="14" fill="#f0fdfa"/>
    <text x="306" y="245" fill="#0f172a" font-family="'Inter',sans-serif" font-size="12" font-weight="600">USD · USDC · CRT</text>
    <rect x="432" y="104" width="112" height="160" rx="18" fill="rgba(4,120,87,0.85)" stroke="rgba(16,185,129,0.45)"/>
    <text x="452" y="138" fill="#d1fae5" font-family="'Inter',sans-serif" font-size="14" font-weight="600">Payouts</text>
    <rect x="444" y="154" width="88" height="12" rx="6" fill="#bbf7d0"/>
    <rect x="444" y="178" width="88" height="12" rx="6" fill="#6ee7b7"/>
    <rect x="444" y="202" width="88" height="12" rx="6" fill="#34d399"/>
    <rect x="444" y="226" width="88" height="12" rx="6" fill="#0ea5e9"/>
    <rect x="444" y="250" width="88" height="28" rx="14" fill="#ecfdf5"/>
    <text x="452" y="269" fill="#0f172a" font-family="'Inter',sans-serif" font-size="12" font-weight="600">Next run · Fri</text>
  </g>
  <path d="M256 184c56-40 124-40 176 0" stroke="#34d399" stroke-width="3" stroke-linecap="round" stroke-dasharray="10 12"/>
  <path d="M188 236c72 36 168 44 240 8" stroke="#2dd4bf" stroke-width="3" stroke-linecap="round" stroke-dasharray="10 12"/>
  <g fill="#34d399">
    <circle cx="256" cy="184" r="7"/>
    <circle cx="432" cy="184" r="7"/>
    <circle cx="188" cy="236" r="7"/>
    <circle cx="428" cy="244" r="7"/>
  </g>
  <g filter="url(#footerShadow)">
    <rect x="192" y="300" width="256" height="40" rx="20" fill="rgba(16,185,129,0.24)" stroke="rgba(45,212,191,0.4)"/>
    <text x="210" y="325" fill="#ecfdf5" font-family="'Inter',sans-serif" font-size="15" font-weight="600">Wallet → splits → payouts timeline</text>
  </g>
  <defs>
    <linearGradient id="bg" x1="80" y1="36" x2="560" y2="328" gradientUnits="userSpaceOnUse">
      <stop stop-color="#022c22"/>
      <stop offset="0.45" stop-color="#064e3b"/>
      <stop offset="1" stop-color="#0f172a"/>
    </linearGradient>
    <filter id="panelShadow" x="60" y="52" width="520" height="264" filterUnits="userSpaceOnUse" color-interpolation-filters="sRGB">
      <feFlood flood-opacity="0" result="BackgroundImageFix"/>
      <feColorMatrix in="SourceAlpha" type="matrix" values="0 0 0 0 0 0 0 0 0 0 0 0 0 0 0 0 0 0 127 0" result="hardAlpha"/>
      <feOffset dy="8"/>
      <feGaussianBlur stdDeviation="12"/>
      <feComposite in2="hardAlpha" operator="out"/>
      <feColorMatrix type="matrix" values="0 0 0 0 0.02 0 0 0 0 0.34 0 0 0 0 0.29 0 0 0 0.32 0"/>
      <feBlend in2="BackgroundImageFix" mode="normal" result="effect1_dropShadow"/>
      <feBlend in="SourceGraphic" in2="effect1_dropShadow" mode="normal" result="shape"/>
    </filter>
    <filter id="footerShadow" x="172" y="284" width="296" height="80" filterUnits="userSpaceOnUse" color-interpolation-filters="sRGB">
      <feFlood flood-opacity="0" result="BackgroundImageFix"/>
      <feColorMatrix in="SourceAlpha" type="matrix" values="0 0 0 0 0 0 0 0 0 0 0 0 0 0 0 0 0 0 127 0" result="hardAlpha"/>
      <feOffset dy="6"/>
      <feGaussianBlur stdDeviation="10"/>
      <feComposite in2="hardAlpha" operator="out"/>
      <feColorMatrix type="matrix" values="0 0 0 0 0.03 0 0 0 0 0.38 0 0 0 0 0.32 0 0 0 0.32 0"/>
      <feBlend in2="BackgroundImageFix" mode="normal" result="effect1_dropShadow"/>
      <feBlend in="SourceGraphic" in2="effect1_dropShadow" mode="normal" result="shape"/>
    </filter>
  </defs>
</svg>
